<svg xmlns="http://www.w3.org/2000/svg" width="1440" height="900" viewBox="0 0 1440 900" role="img" aria-label="HA_Codex_UI interface screenshot">
  <rect width="1440" height="900" fill="#081016"/>
  <rect x="0" y="0" width="1440" height="58" fill="#0c1720"/>
  <text x="28" y="38" fill="#d8e4ec" font-family="Inter, Arial, sans-serif" font-size="22" font-weight="700">HA_Codex_UI</text>
  <rect x="1240" y="16" width="154" height="28" rx="14" fill="#10251f" stroke="#26745f"/>
  <text x="1276" y="35" fill="#86efac" font-family="Inter, Arial, sans-serif" font-size="13">Connected</text>

  <rect x="0" y="58" width="318" height="814" fill="#101a22" stroke="#27414f"/>
  <text x="22" y="94" fill="#91a8b6" font-family="Inter, Arial, sans-serif" font-size="14">Workspace</text>
  <rect x="20" y="108" width="274" height="40" rx="6" fill="#0b151d" stroke="#27414f"/>
  <text x="36" y="134" fill="#d8e4ec" font-family="Inter, Arial, sans-serif" font-size="15">Workspace</text>
  <text x="22" y="186" fill="#d8e4ec" font-family="Inter, Arial, sans-serif" font-size="18" font-weight="700">Files</text>
  <rect x="20" y="206" width="274" height="34" rx="6" fill="#12202a" stroke="#27414f"/>
  <text x="36" y="228" fill="#91a8b6" font-family="Inter, Arial, sans-serif" font-size="13">root / dashboards</text>
  <g font-family="Inter, Arial, sans-serif" font-size="14">
    <rect x="20" y="260" width="274" height="34" rx="6" fill="#15232d"/>
    <text x="54" y="282" fill="#7dd3fc">configuration.yaml</text>
    <rect x="20" y="300" width="274" height="34" rx="6" fill="#101a22"/>
    <text x="54" y="322" fill="#d8e4ec">automations.yaml</text>
    <rect x="20" y="340" width="274" height="34" rx="6" fill="#101a22"/>
    <text x="54" y="362" fill="#d8e4ec">scripts.yaml</text>
    <rect x="20" y="380" width="274" height="34" rx="6" fill="#101a22"/>
    <text x="54" y="402" fill="#facc15">secrets.yaml blocked</text>
  </g>

  <rect x="318" y="58" width="742" height="814" fill="#0a1219"/>
  <rect x="338" y="82" width="702" height="330" rx="8" fill="#071017" stroke="#27414f"/>
  <text x="360" y="116" fill="#d8e4ec" font-family="Inter, Arial, sans-serif" font-size="18" font-weight="700">Editor</text>
  <text x="360" y="154" fill="#7dd3fc" font-family="ui-monospace, Menlo, monospace" font-size="15">homeassistant:</text>
  <text x="386" y="184" fill="#d8e4ec" font-family="ui-monospace, Menlo, monospace" font-size="15">name: HA_Codex_UI Lab</text>
  <text x="360" y="230" fill="#7dd3fc" font-family="ui-monospace, Menlo, monospace" font-size="15">automation: !include automations.yaml</text>
  <rect x="900" y="96" width="118" height="34" rx="6" fill="#12202a" stroke="#27414f"/>
  <text x="936" y="118" fill="#d8e4ec" font-family="Inter, Arial, sans-serif" font-size="14">Save</text>

  <rect x="338" y="432" width="702" height="404" rx="8" fill="#0a0f14" stroke="#27414f"/>
  <rect x="356" y="452" width="104" height="32" rx="6" fill="#10251f" stroke="#5eead4"/>
  <text x="384" y="473" fill="#d8e4ec" font-family="Inter, Arial, sans-serif" font-size="14">Shell</text>
  <rect x="470" y="452" width="104" height="32" rx="6" fill="#12202a" stroke="#27414f"/>
  <text x="500" y="473" fill="#d8e4ec" font-family="Inter, Arial, sans-serif" font-size="14">Codex</text>
  <text x="360" y="528" fill="#86efac" font-family="ui-monospace, Menlo, monospace" font-size="15">$ pwd</text>
  <text x="360" y="560" fill="#d8e4ec" font-family="ui-monospace, Menlo, monospace" font-size="15">/share/ha_codex_ui_workspace</text>
  <text x="360" y="616" fill="#86efac" font-family="ui-monospace, Menlo, monospace" font-size="15">$ codex</text>
  <text x="360" y="648" fill="#d8e4ec" font-family="ui-monospace, Menlo, monospace" font-size="15">Codex CLI ready in selected workspace</text>

  <rect x="1060" y="58" width="380" height="814" fill="#101a22" stroke="#27414f"/>
  <text x="1084" y="96" fill="#d8e4ec" font-family="Inter, Arial, sans-serif" font-size="18" font-weight="700">Inspector</text>
  <rect x="1084" y="126" width="318" height="92" rx="8" fill="#0b151d" stroke="#27414f"/>
  <text x="1104" y="158" fill="#91a8b6" font-family="Inter, Arial, sans-serif" font-size="14">Policy</text>
  <text x="1104" y="188" fill="#86efac" font-family="Inter, Arial, sans-serif" font-size="15">Writable workspace</text>
  <rect x="1084" y="242" width="318" height="132" rx="8" fill="#0b151d" stroke="#27414f"/>
  <text x="1104" y="274" fill="#91a8b6" font-family="Inter, Arial, sans-serif" font-size="14">Changed files</text>
  <text x="1104" y="306" fill="#facc15" font-family="Inter, Arial, sans-serif" font-size="15">M configuration.yaml</text>
  <text x="1104" y="336" fill="#86efac" font-family="Inter, Arial, sans-serif" font-size="15">+ dashboards/lights.yaml</text>
  <rect x="1084" y="398" width="318" height="230" rx="8" fill="#0b151d" stroke="#27414f"/>
  <text x="1104" y="430" fill="#91a8b6" font-family="Inter, Arial, sans-serif" font-size="14">Diagnostics</text>
  <text x="1104" y="464" fill="#86efac" font-family="Inter, Arial, sans-serif" font-size="15">Backend running</text>
  <text x="1104" y="496" fill="#86efac" font-family="Inter, Arial, sans-serif" font-size="15">PTY available</text>
  <text x="1104" y="528" fill="#facc15" font-family="Inter, Arial, sans-serif" font-size="15">/config read-only</text>
  <text x="1104" y="560" fill="#7dd3fc" font-family="Inter, Arial, sans-serif" font-size="15">Ingress detected</text>

  <rect x="0" y="872" width="1440" height="28" fill="#0c1720"/>
  <text x="22" y="891" fill="#91a8b6" font-family="Inter, Arial, sans-serif" font-size="12">/share/ha_codex_ui_workspace</text>
  <text x="1220" y="891" fill="#91a8b6" font-family="Inter, Arial, sans-serif" font-size="12">2 terminals</text>
</svg>
